<?xml version="1.0" encoding="UTF-8" standalone="no"?>
<!-- Created with Inkscape (http://www.inkscape.org/) -->
<svg
   xmlns:dc="http://purl.org/dc/elements/1.1/"
   xmlns:cc="http://web.resource.org/cc/"
   xmlns:rdf="http://www.w3.org/1999/02/22-rdf-syntax-ns#"
   xmlns:svg="http://www.w3.org/2000/svg"
   xmlns="http://www.w3.org/2000/svg"
   xmlns:xlink="http://www.w3.org/1999/xlink"
   xmlns:sodipodi="http://sodipodi.sourceforge.net/DTD/sodipodi-0.dtd"
   xmlns:inkscape="http://www.inkscape.org/namespaces/inkscape"
   width="341"
   height="264"
   id="svg5950"
   sodipodi:version="0.32"
   inkscape:version="0.44.1"
   version="1.0"
   sodipodi:docbase="/home/david/proy/PensarEnC++/images"
   sodipodi:docname="06.svg">
  <defs
     id="defs5952" />
  <sodipodi:namedview
     id="base"
     pagecolor="#ffffff"
     bordercolor="#666666"
     borderopacity="1.0"
     inkscape:pageopacity="0.0"
     inkscape:pageshadow="2"
     inkscape:zoom="2.2007576"
     inkscape:cx="170.5"
     inkscape:cy="132"
     inkscape:document-units="px"
     inkscape:current-layer="layer1"
     inkscape:window-width="1142"
     inkscape:window-height="785"
     inkscape:window-x="0"
     inkscape:window-y="25" />
  <metadata
     id="metadata5955">
    <rdf:RDF>
      <cc:Work
         rdf:about="">
        <dc:format>image/svg+xml</dc:format>
        <dc:type
           rdf:resource="http://purl.org/dc/dcmitype/StillImage" />
      </cc:Work>
    </rdf:RDF>
  </metadata>
  <g
     inkscape:label="Capa 1"
     inkscape:groupmode="layer"
     id="layer1"
     transform="translate(-29.22132,-11.53966)">
    <image
       y="3.5396557"
       x="403.22131"
       id="image5998"
       height="264"
       width="341"
       sodipodi:absref="/home/david/proy/PensarEnC++/images/06.png"
       xlink:href="06.png" />
    <path
       style="fill:none;fill-opacity:1;stroke:black;stroke-width:0.44126105;stroke-miterlimit:4;stroke-dasharray:none;stroke-opacity:1"
       d="M 199.13992,167.18626 L 203.45789,180.40829 L 194.82196,180.40829 L 199.13992,167.18626 z "
       id="rect5943"
       sodipodi:nodetypes="cccc" />
    <path
       style="fill:none;fill-rule:evenodd;stroke:black;stroke-width:0.5;stroke-linecap:butt;stroke-linejoin:miter;stroke-miterlimit:4;stroke-dasharray:none;stroke-opacity:1;display:inline"
       d="M 199.13994,180.21691 L 199.13994,209.33458"
       id="path5948"
       inkscape:connector-type="polyline"
       sodipodi:nodetypes="cc" />
    <rect
       style="fill:none;fill-opacity:1;stroke:black;stroke-width:0.5;stroke-miterlimit:4;stroke-dasharray:none;stroke-opacity:1"
       id="rect5931"
       width="96.718727"
       height="50.904594"
       x="150.85373"
       y="209.96567" />
    <path
       style="font-size:12px;font-style:normal;font-weight:normal;line-height:125%;fill:black;fill-opacity:1;stroke:none;stroke-width:1px;stroke-linecap:butt;stroke-linejoin:miter;stroke-opacity:1;font-family:Bitstream Vera Sans"
       d="M 174.24141,231.21729 L 174.24141,232.67334 C 173.77656,232.24041 173.27981,231.91684 172.75117,231.70264 C 172.22708,231.48845 171.66881,231.38136 171.07637,231.38135 C 169.9097,231.38136 169.01647,231.7391 168.39668,232.45459 C 167.77689,233.16553 167.46699,234.19548 167.467,235.54443 C 167.46699,236.88884 167.77689,237.91879 168.39668,238.63428 C 169.01647,239.34522 169.9097,239.70068 171.07637,239.70068 C 171.66881,239.70068 172.22708,239.59359 172.75117,239.37939 C 173.27981,239.1652 173.77656,238.84164 174.24141,238.40869 L 174.24141,239.85107 C 173.75833,240.1792 173.24563,240.42529 172.70332,240.58936 C 172.16556,240.75342 171.5959,240.83545 170.99434,240.83545 C 169.44941,240.83545 168.23262,240.36377 167.34395,239.42041 C 166.45528,238.4725 166.01094,237.1805 166.01094,235.54443 C 166.01094,233.90382 166.45528,232.61182 167.34395,231.66846 C 168.23262,230.72055 169.44941,230.24659 170.99434,230.24658 C 171.60501,230.24659 172.17923,230.32862 172.717,230.49268 C 173.2593,230.65219 173.76744,230.89373 174.24141,231.21729 M 176.20332,237.61572 L 176.20332,232.98096 L 177.46114,232.98096 L 177.46114,237.56787 C 177.46113,238.29248 177.60241,238.83708 177.88496,239.20166 C 178.16751,239.56169 178.59134,239.7417 179.15645,239.7417 C 179.83548,239.7417 180.37096,239.52523 180.76289,239.09229 C 181.15937,238.65934 181.35761,238.06918 181.35762,237.32178 L 181.35762,232.98096 L 182.61543,232.98096 L 182.61543,240.63721 L 181.35762,240.63721 L 181.35762,239.46143 C 181.05228,239.92627 180.69681,240.27262 180.29121,240.50049 C 179.89017,240.7238 179.42305,240.83545 178.88985,240.83545 C 178.01029,240.83545 177.34264,240.56201 176.88692,240.01514 C 176.43119,239.46826 176.20332,238.66846 176.20332,237.61572 M 188.69942,236.78857 C 187.68314,236.78858 186.97904,236.90479 186.58711,237.13721 C 186.19518,237.36963 185.99922,237.76612 185.99922,238.32666 C 185.99922,238.77328 186.14505,239.12874 186.43672,239.39307 C 186.73294,239.65283 187.13398,239.78272 187.63985,239.78271 C 188.33711,239.78272 188.89538,239.53662 189.31465,239.04443 C 189.73847,238.54769 189.95039,237.88916 189.95039,237.06885 L 189.95039,236.78857 L 188.69942,236.78857 M 191.20821,236.26904 L 191.20821,240.63721 L 189.95039,240.63721 L 189.95039,239.4751 C 189.66328,239.93994 189.30553,240.28402 188.87715,240.50732 C 188.44876,240.72607 187.92467,240.83545 187.30489,240.83545 C 186.52103,240.83545 185.89668,240.6167 185.43184,240.1792 C 184.97155,239.73714 184.74141,239.14697 184.74141,238.40869 C 184.74141,237.54737 185.02852,236.89795 185.60274,236.46045 C 186.18151,236.02295 187.04284,235.8042 188.18672,235.8042 L 189.95039,235.8042 L 189.95039,235.68115 C 189.95039,235.10238 189.75898,234.65577 189.37617,234.34131 C 188.99791,234.0223 188.46471,233.8628 187.77657,233.86279 C 187.33906,233.8628 186.91296,233.91521 186.49825,234.02002 C 186.08353,234.12484 185.68477,234.28207 185.30196,234.4917 L 185.30196,233.32959 C 185.76224,233.15186 186.20885,233.0197 186.6418,232.93311 C 187.07474,232.84197 187.49629,232.79639 187.90645,232.79639 C 189.01387,232.79639 189.84101,233.0835 190.38789,233.65771 C 190.93476,234.23194 191.2082,235.10238 191.20821,236.26904 M 198.84395,234.14307 L 198.84395,230.00049 L 200.10176,230.00049 L 200.10176,240.63721 L 198.84395,240.63721 L 198.84395,239.48877 C 198.57962,239.9445 198.24466,240.28402 197.83907,240.50732 C 197.43802,240.72607 196.95495,240.83545 196.38985,240.83545 C 195.46471,240.83545 194.71048,240.46631 194.12715,239.72803 C 193.54837,238.98975 193.25899,238.01905 193.25899,236.81592 C 193.25899,235.6128 193.54837,234.6421 194.12715,233.90381 C 194.71048,233.16553 195.46471,232.79639 196.38985,232.79639 C 196.95495,232.79639 197.43802,232.90805 197.83907,233.13135 C 198.24466,233.3501 198.57962,233.68734 198.84395,234.14307 M 194.55782,236.81592 C 194.55781,237.74105 194.74694,238.46794 195.1252,238.99658 C 195.50801,239.52067 196.0321,239.78272 196.69746,239.78271 C 197.36282,239.78272 197.88691,239.52067 198.26973,238.99658 C 198.65254,238.46794 198.84394,237.74105 198.84395,236.81592 C 198.84394,235.89079 198.65254,235.16618 198.26973,234.64209 C 197.88691,234.11345 197.36282,233.84913 196.69746,233.84912 C 196.0321,233.84913 195.50801,234.11345 195.1252,234.64209 C 194.74694,235.16618 194.55781,235.89079 194.55782,236.81592 M 207.1291,234.15674 C 206.98782,234.07471 206.83288,234.01547 206.66426,233.979 C 206.50019,233.93799 206.3179,233.91749 206.11739,233.91748 C 205.40644,233.91749 204.85957,234.14991 204.47676,234.61475 C 204.0985,235.07504 203.90938,235.73812 203.90938,236.604 L 203.90938,240.63721 L 202.64473,240.63721 L 202.64473,232.98096 L 203.90938,232.98096 L 203.90938,234.17041 C 204.1737,233.70557 204.51777,233.3615 204.9416,233.13818 C 205.36543,232.91033 205.8804,232.79639 206.48653,232.79639 C 206.57311,232.79639 206.66881,232.80323 206.77364,232.81689 C 206.87845,232.82602 206.99466,232.84197 207.12227,232.86475 L 207.1291,234.15674 M 211.9416,236.78857 C 210.92532,236.78858 210.22122,236.90479 209.8293,237.13721 C 209.43737,237.36963 209.24141,237.76612 209.24141,238.32666 C 209.24141,238.77328 209.38724,239.12874 209.67891,239.39307 C 209.97513,239.65283 210.37617,239.78272 210.88203,239.78271 C 211.5793,239.78272 212.13756,239.53662 212.55684,239.04443 C 212.98066,238.54769 213.19258,237.88916 213.19258,237.06885 L 213.19258,236.78857 L 211.9416,236.78857 M 214.45039,236.26904 L 214.45039,240.63721 L 213.19258,240.63721 L 213.19258,239.4751 C 212.90547,239.93994 212.54772,240.28402 212.11934,240.50732 C 211.69095,240.72607 211.16686,240.83545 210.54707,240.83545 C 209.76322,240.83545 209.13887,240.6167 208.67403,240.1792 C 208.21374,239.73714 207.9836,239.14697 207.9836,238.40869 C 207.9836,237.54737 208.27071,236.89795 208.84492,236.46045 C 209.4237,236.02295 210.28503,235.8042 211.42891,235.8042 L 213.19258,235.8042 L 213.19258,235.68115 C 213.19258,235.10238 213.00117,234.65577 212.61836,234.34131 C 212.2401,234.0223 211.7069,233.8628 211.01875,233.86279 C 210.58125,233.8628 210.15514,233.91521 209.74043,234.02002 C 209.32572,234.12484 208.92695,234.28207 208.54414,234.4917 L 208.54414,233.32959 C 209.00443,233.15186 209.45104,233.0197 209.88399,232.93311 C 210.31693,232.84197 210.73848,232.79639 211.14864,232.79639 C 212.25605,232.79639 213.0832,233.0835 213.63008,233.65771 C 214.17695,234.23194 214.45039,235.10238 214.45039,236.26904 M 222.08614,234.14307 L 222.08614,230.00049 L 223.34395,230.00049 L 223.34395,240.63721 L 222.08614,240.63721 L 222.08614,239.48877 C 221.82181,239.9445 221.48685,240.28402 221.08125,240.50732 C 220.68021,240.72607 220.19713,240.83545 219.63203,240.83545 C 218.7069,240.83545 217.95267,240.46631 217.36934,239.72803 C 216.79056,238.98975 216.50117,238.01905 216.50117,236.81592 C 216.50117,235.6128 216.79056,234.6421 217.36934,233.90381 C 217.95267,233.16553 218.7069,232.79639 219.63203,232.79639 C 220.19713,232.79639 220.68021,232.90805 221.08125,233.13135 C 221.48685,233.3501 221.82181,233.68734 222.08614,234.14307 M 217.8,236.81592 C 217.8,237.74105 217.98913,238.46794 218.36739,238.99658 C 218.7502,239.52067 219.27428,239.78272 219.93965,239.78271 C 220.60501,239.78272 221.1291,239.52067 221.51192,238.99658 C 221.89472,238.46794 222.08613,237.74105 222.08614,236.81592 C 222.08613,235.89079 221.89472,235.16618 221.51192,234.64209 C 221.1291,234.11345 220.60501,233.84913 219.93965,233.84912 C 219.27428,233.84913 218.7502,234.11345 218.36739,234.64209 C 217.98913,235.16618 217.8,235.89079 217.8,236.81592 M 228.90157,233.86279 C 228.22708,233.8628 227.69388,234.12712 227.30196,234.65576 C 226.91003,235.17986 226.71406,235.89991 226.71407,236.81592 C 226.71406,237.73194 226.90775,238.45427 227.29512,238.98291 C 227.68704,239.507 228.22253,239.76904 228.90157,239.76904 C 229.57148,239.76904 230.10241,239.50472 230.49434,238.97607 C 230.88626,238.44743 231.08222,237.72738 231.08223,236.81592 C 231.08222,235.90902 230.88626,235.19125 230.49434,234.6626 C 230.10241,234.1294 229.57148,233.8628 228.90157,233.86279 M 228.90157,232.79639 C 229.99531,232.79639 230.85436,233.15186 231.47871,233.86279 C 232.10306,234.57374 232.41523,235.55811 232.41524,236.81592 C 232.41523,238.06918 232.10306,239.05355 231.47871,239.76904 C 230.85436,240.47998 229.99531,240.83545 228.90157,240.83545 C 227.80326,240.83545 226.94193,240.47998 226.31758,239.76904 C 225.69779,239.05355 225.38789,238.06918 225.38789,236.81592 C 225.38789,235.55811 225.69779,234.57374 226.31758,233.86279 C 226.94193,233.15186 227.80326,232.79639 228.90157,232.79639"
       id="text2881" />
    <rect
       style="fill:none;fill-opacity:1;stroke:black;stroke-width:0.5;stroke-miterlimit:4;stroke-dasharray:none;stroke-opacity:1"
       id="rect6893"
       width="96.718727"
       height="50.904594"
       x="41.851982"
       y="209.96567" />
    <rect
       style="fill:none;fill-opacity:1;stroke:black;stroke-width:0.5;stroke-miterlimit:4;stroke-dasharray:none;stroke-opacity:1"
       id="rect6895"
       width="96.718727"
       height="50.904594"
       x="258.99481"
       y="209.96567" />
    <path
       style="fill:none;fill-rule:evenodd;stroke:black;stroke-width:0.5;stroke-linecap:butt;stroke-linejoin:miter;stroke-opacity:1;stroke-miterlimit:4;stroke-dasharray:none"
       d="M 90.265936,209.30752 L 90.265936,187.58924 L 308.45889,187.58924 L 308.45889,209.56005"
       id="path6897"
       sodipodi:nodetypes="cccc" />
    <path
       style="font-size:12px;font-style:normal;font-weight:normal;line-height:125%;fill:black;fill-opacity:1;stroke:none;stroke-width:1px;stroke-linecap:butt;stroke-linejoin:miter;stroke-opacity:1;font-family:Bitstream Vera Sans"
       d="M 75.127853,231.49756 L 75.127853,232.95361 C 74.663001,232.52068 74.166257,232.19711 73.637619,231.98291 C 73.113523,231.76873 72.555256,231.66163 71.962814,231.66162 C 70.796143,231.66163 69.902915,232.01938 69.283127,232.73486 C 68.663333,233.44581 68.353437,234.47576 68.353439,235.82471 C 68.353437,237.16911 68.663333,238.19906 69.283127,238.91455 C 69.902915,239.62549 70.796143,239.98096 71.962814,239.98096 C 72.555256,239.98096 73.113523,239.87386 73.637619,239.65967 C 74.166257,239.44548 74.663001,239.12191 75.127853,238.68896 L 75.127853,240.13135 C 74.644772,240.45947 74.132077,240.70557 73.589767,240.86963 C 73.052,241.03369 72.482339,241.11572 71.880783,241.11572 C 70.335857,241.11572 69.119061,240.64404 68.230392,239.70068 C 67.341719,238.75277 66.897384,237.46078 66.897385,235.82471 C 66.897384,234.18409 67.341719,232.8921 68.230392,231.94873 C 69.119061,231.00082 70.335857,230.52687 71.880783,230.52686 C 72.491454,230.52687 73.065672,230.6089 73.603439,230.77295 C 74.145749,230.93246 74.653887,231.174 75.127853,231.49756 M 77.21965,233.26123 L 78.477463,233.26123 L 78.477463,240.91748 L 77.21965,240.91748 L 77.21965,233.26123 M 78.798752,229.72021 L 80.159103,229.72021 L 77.930588,232.29053 L 76.884689,232.29053 L 78.798752,229.72021 M 85.538986,234.43701 C 85.397705,234.35499 85.242757,234.29574 85.074142,234.25928 C 84.910075,234.21827 84.727783,234.19776 84.527267,234.19775 C 83.816326,234.19776 83.269451,234.43018 82.886642,234.89502 C 82.508385,235.35531 82.319257,236.0184 82.31926,236.88428 L 82.31926,240.91748 L 81.054611,240.91748 L 81.054611,233.26123 L 82.31926,233.26123 L 82.31926,234.45068 C 82.58358,233.98585 82.927655,233.64177 83.351486,233.41846 C 83.77531,233.1906 84.290284,233.07667 84.896408,233.07666 C 84.982991,233.07667 85.078694,233.0835 85.183517,233.09717 C 85.28833,233.10629 85.40454,233.12224 85.53215,233.14502 L 85.538986,234.43701 M 92.074142,233.55518 L 92.074142,234.73096 C 91.718667,234.535 91.36092,234.38917 91.0009,234.29346 C 90.645426,234.1932 90.2854,234.14307 89.920822,234.14307 C 89.105063,234.14307 88.4716,234.40284 88.020432,234.92236 C 87.569257,235.43734 87.343672,236.16195 87.343674,237.09619 C 87.343672,238.03044 87.569257,238.75733 88.020432,239.27686 C 88.4716,239.79183 89.105063,240.04932 89.920822,240.04932 C 90.2854,240.04932 90.645426,240.00147 91.0009,239.90576 C 91.36092,239.8055 91.718667,239.65739 92.074142,239.46143 L 92.074142,240.62354 C 91.723225,240.7876 91.358642,240.91064 90.980392,240.99268 C 90.606689,241.07471 90.207927,241.11572 89.784103,241.11572 C 88.631105,241.11572 87.715091,240.75342 87.036057,240.02881 C 86.357019,239.3042 86.017501,238.32666 86.017502,237.09619 C 86.017501,235.8475 86.359298,234.8654 87.042892,234.1499 C 87.731041,233.43442 88.672121,233.07667 89.866135,233.07666 C 90.253499,233.07667 90.631754,233.11768 91.0009,233.19971 C 91.370035,233.27719 91.727782,233.39568 92.074142,233.55518 M 94.145432,237.896 L 94.145432,233.26123 L 95.403244,233.26123 L 95.403244,237.84814 C 95.403242,238.57276 95.544517,239.11735 95.827072,239.48193 C 96.109621,239.84196 96.533449,240.02197 97.098557,240.02197 C 97.777588,240.02197 98.313069,239.8055 98.705002,239.37256 C 99.10148,238.93962 99.299722,238.34945 99.299728,237.60205 L 99.299728,233.26123 L 100.55754,233.26123 L 100.55754,240.91748 L 99.299728,240.91748 L 99.299728,239.7417 C 98.994384,240.20654 98.638915,240.5529 98.233322,240.78076 C 97.832276,241.00407 97.365154,241.11572 96.831955,241.11572 C 95.952395,241.11572 95.284752,240.84229 94.829025,240.29541 C 94.373295,239.74854 94.14543,238.94873 94.145432,237.896 M 103.16203,230.28076 L 104.41985,230.28076 L 104.41985,240.91748 L 103.16203,240.91748 L 103.16203,230.28076 M 110.01164,234.14307 C 109.33716,234.14307 108.80396,234.4074 108.41203,234.93604 C 108.0201,235.46013 107.82414,236.18018 107.82414,237.09619 C 107.82414,238.01221 108.01783,238.73454 108.4052,239.26318 C 108.79712,239.78727 109.3326,240.04932 110.01164,240.04932 C 110.68156,240.04932 111.21248,239.78499 111.60442,239.25635 C 111.99634,238.7277 112.1923,238.00765 112.19231,237.09619 C 112.1923,236.1893 111.99634,235.47152 111.60442,234.94287 C 111.21248,234.40967 110.68156,234.14307 110.01164,234.14307 M 110.01164,233.07666 C 111.10539,233.07667 111.96444,233.43214 112.58879,234.14307 C 113.21313,234.85401 113.52531,235.83838 113.52531,237.09619 C 113.52531,238.34945 113.21313,239.33382 112.58879,240.04932 C 111.96444,240.76025 111.10539,241.11572 110.01164,241.11572 C 108.91333,241.11572 108.052,240.76025 107.42766,240.04932 C 106.80787,239.33382 106.49797,238.34945 106.49797,237.09619 C 106.49797,235.83838 106.80787,234.85401 107.42766,234.14307 C 108.052,233.43214 108.91333,233.07667 110.01164,233.07666"
       id="text6899" />
    <path
       style="font-size:14px;font-style:normal;font-variant:normal;font-weight:normal;font-stretch:normal;text-align:start;line-height:125%;writing-mode:lr-tb;text-anchor:start;fill:black;fill-opacity:1;stroke:none;stroke-width:1px;stroke-linecap:butt;stroke-linejoin:miter;stroke-opacity:1;font-family:Sans"
       d="M 275.47356,230.63091 L 284.10735,230.63091 L 284.10735,231.79302 L 280.48431,231.79302 L 280.48431,240.83697 L 279.09661,240.83697 L 279.09661,231.79302 L 275.47356,231.79302 L 275.47356,230.63091 M 287.77142,234.3565 C 287.63013,234.27447 287.47519,234.21523 287.30657,234.17876 C 287.1425,234.13775 286.96021,234.11725 286.7597,234.11724 C 286.04875,234.11725 285.50188,234.34967 285.11907,234.81451 C 284.74081,235.2748 284.55169,235.93788 284.55169,236.80376 L 284.55169,240.83697 L 283.28704,240.83697 L 283.28704,233.18072 L 284.55169,233.18072 L 284.55169,234.37017 C 284.81601,233.90533 285.16008,233.56126 285.58392,233.33794 C 286.00774,233.11009 286.52271,232.99615 287.12884,232.99615 C 287.21542,232.99615 287.31112,233.00299 287.41595,233.01665 C 287.52076,233.02578 287.63697,233.04173 287.76458,233.06451 L 287.77142,234.3565 M 289.10442,233.18072 L 290.36224,233.18072 L 290.36224,240.83697 L 289.10442,240.83697 L 289.10442,233.18072 M 289.10442,230.20025 L 290.36224,230.20025 L 290.36224,231.79302 L 289.10442,231.79302 L 289.10442,230.20025 M 296.46673,236.98833 C 295.45045,236.98834 294.74635,237.10455 294.35442,237.33697 C 293.96249,237.56939 293.76653,237.96588 293.76653,238.52642 C 293.76653,238.97304 293.91236,239.3285 294.20403,239.59283 C 294.50025,239.85259 294.90129,239.98248 295.40716,239.98247 C 296.10442,239.98248 296.66269,239.73638 297.08196,239.24419 C 297.50578,238.74745 297.7177,238.08892 297.7177,237.26861 L 297.7177,236.98833 L 296.46673,236.98833 M 298.97552,236.4688 L 298.97552,240.83697 L 297.7177,240.83697 L 297.7177,239.67486 C 297.43059,240.1397 297.07284,240.48378 296.64446,240.70708 C 296.21607,240.92583 295.69198,241.03521 295.0722,241.03521 C 294.28834,241.03521 293.66399,240.81646 293.19915,240.37896 C 292.73886,239.9369 292.50872,239.34673 292.50872,238.60845 C 292.50872,237.74713 292.79583,237.09771 293.37005,236.66021 C 293.94882,236.22271 294.81015,236.00396 295.95403,236.00396 L 297.7177,236.00396 L 297.7177,235.88091 C 297.7177,235.30214 297.52629,234.85553 297.14349,234.54107 C 296.76523,234.22206 296.23202,234.06256 295.54388,234.06255 C 295.10637,234.06256 294.68027,234.11497 294.26556,234.21978 C 293.85084,234.3246 293.45208,234.48183 293.06927,234.69146 L 293.06927,233.52935 C 293.52955,233.35162 293.97617,233.21946 294.40911,233.13287 C 294.84205,233.04173 295.2636,232.99615 295.67376,232.99615 C 296.78118,232.99615 297.60832,233.28326 298.1552,233.85747 C 298.70207,234.4317 298.97551,235.30214 298.97552,236.4688 M 296.67864,229.6397 L 298.03899,229.6397 L 295.81048,232.21001 L 294.76458,232.21001 L 296.67864,229.6397 M 307.93743,236.21587 L 307.93743,240.83697 L 306.67962,240.83697 L 306.67962,236.25689 C 306.67961,235.53228 306.53834,234.98997 306.25579,234.62994 C 305.97323,234.26992 305.5494,234.0899 304.98431,234.0899 C 304.30527,234.0899 303.76978,234.30637 303.37786,234.73931 C 302.98593,235.17226 302.78997,235.76243 302.78997,236.50982 L 302.78997,240.83697 L 301.52532,240.83697 L 301.52532,233.18072 L 302.78997,233.18072 L 302.78997,234.37017 C 303.09075,233.90989 303.44394,233.56582 303.84954,233.33794 C 304.25969,233.11009 304.73137,232.99615 305.26458,232.99615 C 306.14413,232.99615 306.80949,233.26959 307.26067,233.81646 C 307.71184,234.35878 307.93742,235.15859 307.93743,236.21587 M 315.49798,236.91997 C 315.49797,236.00852 315.30884,235.30214 314.93059,234.80083 C 314.55689,234.29954 314.03052,234.04889 313.35149,234.04888 C 312.67701,234.04889 312.15064,234.29954 311.77239,234.80083 C 311.39869,235.30214 311.21184,236.00852 311.21184,236.91997 C 311.21184,237.82688 311.39869,238.53098 311.77239,239.03228 C 312.15064,239.53358 312.67701,239.78423 313.35149,239.78423 C 314.03052,239.78423 314.55689,239.53358 314.93059,239.03228 C 315.30884,238.53098 315.49797,237.82688 315.49798,236.91997 M 316.75579,239.88677 C 316.75578,241.19016 316.46639,242.15858 315.88763,242.79204 C 315.30884,243.43006 314.42245,243.74907 313.22845,243.74908 C 312.78639,243.74907 312.36939,243.71489 311.97747,243.64654 C 311.58554,243.58273 311.20501,243.48247 310.83587,243.34576 L 310.83587,242.12212 C 311.20501,242.32264 311.56959,242.47075 311.92962,242.56646 C 312.28964,242.66216 312.6565,242.71001 313.0302,242.71001 C 313.85507,242.71001 314.47258,242.49354 314.88274,242.0606 C 315.29289,241.63221 315.49797,240.9828 315.49798,240.11236 L 315.49798,239.49029 C 315.23821,239.94146 314.90552,240.2787 314.49993,240.50201 C 314.09433,240.72531 313.60898,240.83697 313.04388,240.83697 C 312.10507,240.83697 311.34856,240.47922 310.77434,239.76372 C 310.20013,239.04823 309.91302,238.10032 309.91302,236.91997 C 309.91302,235.73508 310.20013,234.78489 310.77434,234.06939 C 311.34856,233.3539 312.10507,232.99615 313.04388,232.99615 C 313.60898,232.99615 314.09433,233.10781 314.49993,233.33111 C 314.90552,233.55442 315.23821,233.89166 315.49798,234.34283 L 315.49798,233.18072 L 316.75579,233.18072 L 316.75579,239.88677 M 319.21673,237.81548 L 319.21673,233.18072 L 320.47454,233.18072 L 320.47454,237.76763 C 320.47454,238.49224 320.61581,239.03684 320.89837,239.40142 C 321.18092,239.76145 321.60474,239.94146 322.16985,239.94146 C 322.84888,239.94146 323.38437,239.72499 323.7763,239.29204 C 324.17278,238.8591 324.37102,238.26894 324.37102,237.52154 L 324.37102,233.18072 L 325.62884,233.18072 L 325.62884,240.83697 L 324.37102,240.83697 L 324.37102,239.66119 C 324.06568,240.12603 323.71021,240.47238 323.30462,240.70025 C 322.90357,240.92356 322.43645,241.03521 321.90325,241.03521 C 321.02369,241.03521 320.35605,240.76177 319.90032,240.2149 C 319.44459,239.66802 319.21673,238.86822 319.21673,237.81548 M 328.23333,230.20025 L 329.49114,230.20025 L 329.49114,240.83697 L 328.23333,240.83697 L 328.23333,230.20025 M 335.08294,234.06255 C 334.40846,234.06256 333.87525,234.32688 333.48333,234.85552 C 333.0914,235.37962 332.89544,236.09967 332.89544,237.01568 C 332.89544,237.9317 333.08912,238.65403 333.47649,239.18267 C 333.86842,239.70676 334.4039,239.9688 335.08294,239.9688 C 335.75286,239.9688 336.28378,239.70448 336.67571,239.17583 C 337.06763,238.64719 337.2636,237.92714 337.2636,237.01568 C 337.2636,236.10878 337.06763,235.39101 336.67571,234.86236 C 336.28378,234.32916 335.75286,234.06256 335.08294,234.06255 M 335.08294,232.99615 C 336.17668,232.99615 337.03573,233.35162 337.66009,234.06255 C 338.28443,234.7735 338.5966,235.75787 338.59661,237.01568 C 338.5966,238.26894 338.28443,239.25331 337.66009,239.9688 C 337.03573,240.67974 336.17668,241.03521 335.08294,241.03521 C 333.98463,241.03521 333.1233,240.67974 332.49895,239.9688 C 331.87916,239.25331 331.56927,238.26894 331.56927,237.01568 C 331.56927,235.75787 331.87916,234.7735 332.49895,234.06255 C 333.1233,233.35162 333.98463,232.99615 335.08294,232.99615"
       id="text6903" />
    <rect
       style="fill:none;fill-opacity:1;stroke:black;stroke-width:0.5;stroke-miterlimit:4;stroke-dasharray:none;stroke-opacity:1"
       id="rect6907"
       width="97.160423"
       height="134.93642"
       x="151.161"
       y="31.22761" />
    <path
       style="fill:none;fill-rule:evenodd;stroke:black;stroke-width:0.5;stroke-linecap:butt;stroke-linejoin:miter;stroke-opacity:1;stroke-miterlimit:4;stroke-dasharray:none"
       d="M 151.38017,82.280834 C 152.8954,82.78591 248.10227,82.280834 248.10227,82.280834"
       id="path6909" />
    <path
       style="font-size:12px;font-style:normal;font-weight:normal;line-height:125%;fill:black;fill-opacity:1;stroke:none;stroke-width:1px;stroke-linecap:butt;stroke-linejoin:miter;stroke-opacity:1;font-family:Bitstream Vera Sans"
       d="M 179.5376,50.524975 L 185.40283,50.524975 L 185.40283,51.687084 L 180.91846,51.687084 L 180.91846,54.694897 L 184.96533,54.694897 L 184.96533,55.857006 L 180.91846,55.857006 L 180.91846,60.73103 L 179.5376,60.73103 L 179.5376,50.524975 M 186.53076,53.07478 L 187.78857,53.07478 L 187.78857,60.73103 L 186.53076,60.73103 L 186.53076,53.07478 M 186.53076,50.094311 L 187.78857,50.094311 L 187.78857,51.687084 L 186.53076,51.687084 L 186.53076,50.094311 M 195.45166,56.814037 C 195.45165,55.902584 195.26253,55.196204 194.88428,54.694897 C 194.51057,54.193601 193.98421,53.94295 193.30518,53.942944 C 192.63069,53.94295 192.10433,54.193601 191.72607,54.694897 C 191.35237,55.196204 191.16553,55.902584 191.16553,56.814037 C 191.16553,57.720941 191.35237,58.425042 191.72607,58.926342 C 192.10433,59.427645 192.63069,59.678296 193.30518,59.678295 C 193.98421,59.678296 194.51057,59.427645 194.88428,58.926342 C 195.26253,58.425042 195.45165,57.720941 195.45166,56.814037 M 196.70947,59.780834 C 196.70947,61.084219 196.42008,62.052643 195.84131,62.686108 C 195.26253,63.324126 194.37613,63.643136 193.18213,63.643139 C 192.74007,63.643136 192.32308,63.608956 191.93115,63.5406 C 191.53922,63.476795 191.15869,63.376535 190.78955,63.239819 L 190.78955,62.016186 C 191.15869,62.216705 191.52327,62.364817 191.8833,62.460522 C 192.24332,62.556223 192.61019,62.604075 192.98389,62.604076 C 193.80875,62.604075 194.42626,62.387603 194.83643,61.954662 C 195.24658,61.526276 195.45165,60.876863 195.45166,60.00642 L 195.45166,59.38435 C 195.19189,59.835523 194.85921,60.172762 194.45361,60.396069 C 194.04801,60.619376 193.56266,60.73103 192.99756,60.73103 C 192.05875,60.73103 191.30224,60.373282 190.72803,59.657787 C 190.15381,58.942294 189.8667,57.994379 189.8667,56.814037 C 189.8667,55.629147 190.15381,54.678952 190.72803,53.963451 C 191.30224,53.247964 192.05875,52.890217 192.99756,52.890209 C 193.56266,52.890217 194.04801,53.001871 194.45361,53.22517 C 194.85921,53.448485 195.19189,53.785724 195.45166,54.236889 L 195.45166,53.07478 L 196.70947,53.07478 L 196.70947,59.780834 M 199.17041,57.709545 L 199.17041,53.07478 L 200.42822,53.07478 L 200.42822,57.661694 C 200.42822,58.386305 200.5695,58.930901 200.85205,59.295483 C 201.1346,59.65551 201.55843,59.835523 202.12354,59.835522 C 202.80257,59.835523 203.33805,59.619051 203.72998,59.186108 C 204.12646,58.753167 204.3247,58.162998 204.32471,57.4156 L 204.32471,53.07478 L 205.58252,53.07478 L 205.58252,60.73103 L 204.32471,60.73103 L 204.32471,59.555248 C 204.01936,60.020093 203.66389,60.366447 203.2583,60.594311 C 202.85725,60.817618 202.39013,60.929271 201.85693,60.929272 C 200.97737,60.929271 200.30973,60.655834 199.854,60.108959 C 199.39827,59.562085 199.17041,58.762281 199.17041,57.709545 M 212.62354,54.250561 C 212.48225,54.168536 212.32731,54.109291 212.15869,54.072826 C 211.99462,54.031817 211.81233,54.01131 211.61182,54.011303 C 210.90087,54.01131 210.354,54.243731 209.97119,54.708569 C 209.59293,55.168861 209.40381,55.831946 209.40381,56.697826 L 209.40381,60.73103 L 208.13916,60.73103 L 208.13916,53.07478 L 209.40381,53.07478 L 209.40381,54.264233 C 209.66813,53.799396 210.0122,53.455321 210.43604,53.232006 C 210.85986,53.004149 211.37483,52.890217 211.98096,52.890209 C 212.06754,52.890217 212.16324,52.897053 212.26807,52.910717 C 212.37288,52.919839 212.48909,52.93579 212.6167,52.958569 L 212.62354,54.250561 M 217.43604,56.882397 C 216.41976,56.882401 215.71565,56.998611 215.32373,57.23103 C 214.9318,57.463455 214.73584,57.859939 214.73584,58.420483 C 214.73584,58.867099 214.88167,59.222567 215.17334,59.486889 C 215.46956,59.746655 215.8706,59.876538 216.37646,59.876537 C 217.07373,59.876538 217.63199,59.630445 218.05127,59.138256 C 218.47509,58.641513 218.68701,57.982985 218.68701,57.16267 L 218.68701,56.882397 L 217.43604,56.882397 M 219.94482,56.362865 L 219.94482,60.73103 L 218.68701,60.73103 L 218.68701,59.56892 C 218.3999,60.033765 218.04215,60.37784 217.61377,60.601147 C 217.18538,60.819897 216.66129,60.929271 216.0415,60.929272 C 215.25765,60.929271 214.6333,60.710522 214.16846,60.273022 C 213.70817,59.830965 213.47803,59.240797 213.47803,58.502514 C 213.47803,57.641189 213.76514,56.991775 214.33936,56.554272 C 214.91813,56.116776 215.77946,55.898027 216.92334,55.898022 L 218.68701,55.898022 L 218.68701,55.774975 C 218.68701,55.196204 218.4956,54.74959 218.11279,54.435131 C 217.73453,54.116127 217.20133,53.956622 216.51318,53.956615 C 216.07568,53.956622 215.64957,54.009031 215.23486,54.113842 C 214.82015,54.218666 214.42138,54.375893 214.03857,54.585522 L 214.03857,53.423412 C 214.49886,53.245685 214.94547,53.113524 215.37842,53.026928 C 215.81136,52.93579 216.23291,52.890217 216.64307,52.890209 C 217.75048,52.890217 218.57763,53.177326 219.12451,53.751537 C 219.67138,54.325762 219.94482,55.196204 219.94482,56.362865"
       id="text6911" />
    <text
       xml:space="preserve"
       style="font-size:13px;font-style:normal;font-variant:normal;font-weight:normal;font-stretch:normal;text-align:start;line-height:125%;writing-mode:lr-tb;text-anchor:start;fill:black;fill-opacity:1;stroke:none;stroke-width:1px;stroke-linecap:butt;stroke-linejoin:miter;stroke-opacity:1;font-family:Bitstream Charter"
       x="156.07051"
       y="95.528938"
       id="text1963"
       sodipodi:linespacing="125%"
       inkscape:export-filename="/home/david/proy/PensarEnC++/images/03.png"
       inkscape:export-xdpi="600.32703"
       inkscape:export-ydpi="600.32703"><tspan
         sodipodi:role="line"
         id="tspan1967"
         x="156.07051"
         y="95.528938">dibujar( )</tspan><tspan
         sodipodi:role="line"
         id="tspan1969"
         x="156.07051"
         y="111.77894">borrar( )</tspan><tspan
         sodipodi:role="line"
         id="tspan1971"
         x="156.07051"
         y="128.02894">mover( )</tspan><tspan
         sodipodi:role="line"
         id="tspan1973"
         x="156.07051"
         y="144.27894">pedirColor( )</tspan><tspan
         sodipodi:role="line"
         x="156.07051"
         y="160.52894"
         id="tspan7000">fijarColor( )</tspan></text>
  </g>
</svg>
