<?xml version="1.0" encoding="UTF-8" standalone="no"?>
<!-- Created with Inkscape (http://www.inkscape.org/) -->
<svg
   xmlns:svg="http://www.w3.org/2000/svg"
   xmlns="http://www.w3.org/2000/svg"
   xmlns:xlink="http://www.w3.org/1999/xlink"
   xmlns:inkscape="http://www.inkscape.org/namespaces/inkscape"
   version="1.0"
   width="136.94882"
   height="159.09448"
   id="svg4993">
  <defs
     id="defs4995" />
  <g
     transform="translate(-116.7365,-230.6469)"
     id="layer1">
    <rect
       width="98.735046"
       height="51.965813"
       x="135.63078"
       y="241.17586"
       style="fill:none;fill-opacity:1;stroke:#000000;stroke-width:0.5;stroke-miterlimit:4;stroke-dasharray:none;stroke-opacity:1"
       id="rect5931" />
    <rect
       width="98.735046"
       height="51.965813"
       x="135.63078"
       y="323.80151"
       style="fill:none;fill-opacity:1;stroke:#000000;stroke-width:0.5;stroke-miterlimit:4;stroke-dasharray:none;stroke-opacity:1"
       id="rect5933" />
    <text
       x="167.63503"
       y="271.33868"
       style="font-size:12px;font-style:normal;font-weight:normal;line-height:125%;fill:#000000;fill-opacity:1;stroke:none;stroke-width:1px;stroke-linecap:butt;stroke-linejoin:miter;stroke-opacity:1;font-family:Bitstream Vera Sans"
       id="text2881"
       xml:space="preserve"><tspan
         x="167.63503"
         y="271.33868"
         style="font-size:14px;font-style:normal;font-variant:normal;font-weight:normal;font-stretch:normal;text-align:start;line-height:125%;writing-mode:lr-tb;text-anchor:start;font-family:Sans"
         id="tspan2883">Base</tspan></text>
    <path
       d="M 184.99829,293.54605 L 189.31626,306.76808 L 180.68033,306.76808 L 184.99829,293.54605 z "
       style="fill:none;fill-opacity:1;stroke:#000000;stroke-width:0.44126105;stroke-miterlimit:4;stroke-dasharray:none;stroke-opacity:1"
       id="rect5943" />
    <path
       d="M 184.99831,306.5767 L 184.99831,323.55151"
       inkscape:connection-end="#rect5933"
       style="fill:none;fill-rule:evenodd;stroke:#000000;stroke-width:0.5;stroke-linecap:butt;stroke-linejoin:miter;stroke-miterlimit:4;stroke-dasharray:none;stroke-opacity:1;display:inline"
       id="path5948" />
    <path
       d="M 156.01393,345.93237 L 156.01393,353.8689 L 157.6819,353.8689 C 159.0901,353.8689 160.12004,353.54989 160.77174,352.91187 C 161.42799,352.27385 161.75611,351.26669 161.75612,349.89038 C 161.75611,348.5232 161.42799,347.52288 160.77174,346.8894 C 160.12004,346.25139 159.0901,345.93238 157.6819,345.93237 L 156.01393,345.93237 M 154.63307,344.79761 L 157.46999,344.79761 C 159.44784,344.79762 160.89934,345.21005 161.82448,346.03491 C 162.7496,346.85523 163.21216,348.14039 163.21217,349.89038 C 163.21216,351.6495 162.74732,352.94149 161.81764,353.76636 C 160.88795,354.59123 159.43873,355.00366 157.46999,355.00366 L 154.63307,355.00366 L 154.63307,344.79761 M 171.90065,350.86108 L 171.90065,351.47632 L 166.11745,351.47632 C 166.17213,352.34221 166.4319,353.00301 166.89674,353.45874 C 167.36614,353.90991 168.01783,354.1355 168.85182,354.1355 C 169.33489,354.1355 169.80201,354.07625 170.25319,353.95776 C 170.70891,353.83928 171.16008,353.66154 171.6067,353.42456 L 171.6067,354.61401 C 171.15553,354.80542 170.69296,354.95125 170.21901,355.05151 C 169.74505,355.15177 169.26425,355.2019 168.77663,355.2019 C 167.55527,355.2019 166.58685,354.84644 165.87135,354.1355 C 165.16041,353.42456 164.80495,352.46297 164.80495,351.25073 C 164.80495,349.99748 165.14219,349.00399 165.81667,348.27026 C 166.4957,347.53199 167.40944,347.16285 168.55788,347.16284 C 169.58782,347.16285 170.40129,347.49553 170.99831,348.16089 C 171.59986,348.8217 171.90064,349.72177 171.90065,350.86108 M 170.64284,350.49194 C 170.63372,349.8038 170.44003,349.25464 170.06178,348.84448 C 169.68808,348.43433 169.19133,348.22925 168.57155,348.22925 C 167.86972,348.22925 167.3069,348.4275 166.88307,348.82397 C 166.4638,349.22046 166.22226,349.77873 166.15846,350.49878 L 170.64284,350.49194 M 178.40163,348.52319 C 178.26034,348.44117 178.1054,348.38192 177.93678,348.34546 C 177.77272,348.30445 177.59042,348.28394 177.38991,348.28394 C 176.67897,348.28394 176.13209,348.51636 175.74928,348.9812 C 175.37102,349.44149 175.1819,350.10458 175.1819,350.97046 L 175.1819,355.00366 L 173.91725,355.00366 L 173.91725,347.34741 L 175.1819,347.34741 L 175.1819,348.53687 C 175.44622,348.07203 175.7903,347.72795 176.21413,347.50464 C 176.63795,347.27678 177.15292,347.16285 177.75905,347.16284 C 177.84563,347.16285 177.94133,347.16969 178.04616,347.18335 C 178.15097,347.19247 178.26718,347.20842 178.39479,347.2312 L 178.40163,348.52319 M 179.73463,347.34741 L 180.99245,347.34741 L 180.99245,355.00366 L 179.73463,355.00366 L 179.73463,347.34741 M 179.73463,344.36694 L 180.99245,344.36694 L 180.99245,345.95972 L 179.73463,345.95972 L 179.73463,344.36694 M 182.7151,347.34741 L 184.04811,347.34741 L 186.44069,353.77319 L 188.83327,347.34741 L 190.16628,347.34741 L 187.29518,355.00366 L 185.5862,355.00366 L 182.7151,347.34741 M 195.3821,351.15503 C 194.36582,351.15503 193.66171,351.27124 193.26979,351.50366 C 192.87786,351.73609 192.6819,352.13257 192.6819,352.69312 C 192.6819,353.13973 192.82773,353.4952 193.1194,353.75952 C 193.41562,354.01929 193.81666,354.14917 194.32253,354.14917 C 195.01979,354.14917 195.57805,353.90308 195.99733,353.41089 C 196.42115,352.91415 196.63307,352.25562 196.63307,351.4353 L 196.63307,351.15503 L 195.3821,351.15503 M 197.89088,350.6355 L 197.89088,355.00366 L 196.63307,355.00366 L 196.63307,353.84155 C 196.34596,354.3064 195.98821,354.65047 195.55983,354.87378 C 195.13144,355.09253 194.60735,355.2019 193.98756,355.2019 C 193.20371,355.2019 192.57936,354.98315 192.11452,354.54565 C 191.65423,354.1036 191.42409,353.51343 191.42409,352.77515 C 191.42409,351.91382 191.7112,351.26441 192.28542,350.8269 C 192.86419,350.38941 193.72552,350.17066 194.8694,350.17065 L 196.63307,350.17065 L 196.63307,350.04761 C 196.63307,349.46884 196.44166,349.02222 196.05885,348.70776 C 195.68059,348.38876 195.14739,348.22925 194.45924,348.22925 C 194.02174,348.22925 193.59563,348.28166 193.18092,348.38647 C 192.76621,348.4913 192.36745,348.64853 191.98463,348.85815 L 191.98463,347.69604 C 192.44492,347.51832 192.89153,347.38616 193.32448,347.29956 C 193.75742,347.20842 194.17897,347.16285 194.58913,347.16284 C 195.69654,347.16285 196.52369,347.44996 197.07057,348.02417 C 197.61744,348.5984 197.89088,349.46884 197.89088,350.6355 M 205.52663,348.50952 L 205.52663,344.36694 L 206.78444,344.36694 L 206.78444,355.00366 L 205.52663,355.00366 L 205.52663,353.85522 C 205.2623,354.31095 204.92734,354.65047 204.52174,354.87378 C 204.1207,355.09253 203.63762,355.2019 203.07253,355.2019 C 202.14739,355.2019 201.39316,354.83276 200.80983,354.09448 C 200.23105,353.3562 199.94166,352.3855 199.94167,351.18237 C 199.94166,349.97925 200.23105,349.00855 200.80983,348.27026 C 201.39316,347.53199 202.14739,347.16285 203.07253,347.16284 C 203.63762,347.16285 204.1207,347.2745 204.52174,347.4978 C 204.92734,347.71656 205.2623,348.0538 205.52663,348.50952 M 201.24049,351.18237 C 201.24049,352.10751 201.42962,352.83439 201.80788,353.36304 C 202.19069,353.88713 202.71477,354.14917 203.38014,354.14917 C 204.0455,354.14917 204.56959,353.88713 204.95241,353.36304 C 205.33521,352.83439 205.52662,352.10751 205.52663,351.18237 C 205.52662,350.25725 205.33521,349.53264 204.95241,349.00854 C 204.56959,348.47991 204.0455,348.21558 203.38014,348.21558 C 202.71477,348.21558 202.19069,348.47991 201.80788,349.00854 C 201.42962,349.53264 201.24049,350.25725 201.24049,351.18237 M 212.85475,351.15503 C 211.83847,351.15503 211.13437,351.27124 210.74245,351.50366 C 210.35052,351.73609 210.15455,352.13257 210.15456,352.69312 C 210.15455,353.13973 210.30039,353.4952 210.59206,353.75952 C 210.88828,354.01929 211.28932,354.14917 211.79518,354.14917 C 212.49244,354.14917 213.05071,353.90308 213.46999,353.41089 C 213.89381,352.91415 214.10572,352.25562 214.10573,351.4353 L 214.10573,351.15503 L 212.85475,351.15503 M 215.36354,350.6355 L 215.36354,355.00366 L 214.10573,355.00366 L 214.10573,353.84155 C 213.81861,354.3064 213.46087,354.65047 213.03249,354.87378 C 212.6041,355.09253 212.08001,355.2019 211.46022,355.2019 C 210.67636,355.2019 210.05202,354.98315 209.58717,354.54565 C 209.12689,354.1036 208.89674,353.51343 208.89674,352.77515 C 208.89674,351.91382 209.18385,351.26441 209.75807,350.8269 C 210.33685,350.38941 211.19817,350.17066 212.34206,350.17065 L 214.10573,350.17065 L 214.10573,350.04761 C 214.10572,349.46884 213.91432,349.02222 213.53151,348.70776 C 213.15325,348.38876 212.62005,348.22925 211.9319,348.22925 C 211.4944,348.22925 211.06829,348.28166 210.65358,348.38647 C 210.23886,348.4913 209.8401,348.64853 209.45729,348.85815 L 209.45729,347.69604 C 209.91758,347.51832 210.36419,347.38616 210.79713,347.29956 C 211.23007,347.20842 211.65162,347.16285 212.06178,347.16284 C 213.1692,347.16285 213.99635,347.44996 214.54323,348.02417 C 215.0901,348.5984 215.36353,349.46884 215.36354,350.6355"
       style="font-size:12px;font-style:normal;font-weight:normal;line-height:125%;fill:#000000;fill-opacity:1;stroke:none;stroke-width:1px;stroke-linecap:butt;stroke-linejoin:miter;stroke-opacity:1;font-family:Bitstream Vera Sans"
       id="text1878" />
    <image
       xlink:href="TIC2Vo05.gif"
       x="262.92007"
       y="231.43175"
       width="128"
       height="152"
       id="image2283" />
  </g>
</svg>
